<?xml version="1.0" encoding="UTF-8"?>
<svg width="42px" height="54px" viewBox="0 0 42 54" version="1.1" xmlns="http://www.w3.org/2000/svg" xmlns:xlink="http://www.w3.org/1999/xlink">
    <!-- Generator: Sketch 61.2 (89653) - https://sketch.com -->
    <title>Group 23 Copy</title>
    <desc>Created with Sketch.</desc>
    <g id="Page-1" stroke="none" stroke-width="1" fill="none" fill-rule="evenodd" stroke-linecap="round" stroke-linejoin="round">
        <g id="Desktop" transform="translate(-653.000000, -1525.000000)" stroke="#FFFFFF">
            <g id="Group-23-Copy" transform="translate(654.000000, 1526.000000)">
                <path d="M4.81081318,52 L2.18980021,52 C0.9851034,52 0,51.0337886 0,49.8527967 L0,17.1478049 C0,15.9662114 0.9851034,15 2.18980021,15 L4.81081318,15 C6.0148966,15 7,15.9662114 7,17.1478049 L7,49.8527967 C7,51.0337886 6.0148966,52 4.81081318,52 Z" id="Stroke-1"></path>
                <path d="M15.8108132,51 L13.1898002,51 C11.9851034,51 11,50.0408196 11,48.8684217 L11,27.1321756 C11,25.9597776 11.9851034,25 13.1898002,25 L15.8108132,25 C17.0148966,25 18,25.9597776 18,27.1321756 L18,48.8684217 C18,50.0408196 17.0148966,51 15.8108132,51 Z" id="Stroke-3"></path>
                <path d="M26.8108132,51 L24.1898002,51 C22.9851034,51 22,50.0315456 22,48.8478122 L22,37.1527909 C22,35.9690574 22.9851034,35 24.1898002,35 L26.8108132,35 C28.0148966,35 29,35.9690574 29,37.1527909 L29,48.8478122 C29,50.0315456 28.0148966,51 26.8108132,51 Z" id="Stroke-5"></path>
                <path d="M37.8108132,51 L35.1898002,51 C33.9851034,51 33,50.0408196 33,48.8684217 L33,27.1321756 C33,25.9597776 33.9851034,25 35.1898002,25 L37.8108132,25 C39.0148966,25 40,25.9597776 40,27.1321756 L40,48.8684217 C40,50.0408196 39.0148966,51 37.8108132,51 Z" id="Stroke-7"></path>
                <line x1="27" y1="23" x2="34" y2="16" id="Stroke-9"></line>
                <line x1="16" y1="16" x2="23" y2="23" id="Stroke-11"></line>
                <line x1="5" y1="4" x2="13" y2="12" id="Stroke-13"></line>
                <path d="M6,2.5 C6,3.880625 4.880625,5 3.5,5 C2.119375,5 1,3.880625 1,2.5 C1,1.119375 2.119375,0 3.5,0 C4.880625,0 6,1.119375 6,2.5 Z" id="Stroke-15"></path>
                <path d="M17,13.5 C17,14.880625 15.880625,16 14.5,16 C13.119375,16 12,14.880625 12,13.5 C12,12.119375 13.119375,11 14.5,11 C15.880625,11 17,12.119375 17,13.5 Z" id="Stroke-17"></path>
                <path d="M28,23.5 C28,24.880625 26.880625,26 25.5,26 C24.119375,26 23,24.880625 23,23.5 C23,22.119375 24.119375,21 25.5,21 C26.880625,21 28,22.119375 28,23.5 Z" id="Stroke-19"></path>
                <path d="M39,13.5 C39,14.880625 37.880625,16 36.5,16 C35.119375,16 34,14.880625 34,13.5 C34,12.119375 35.119375,11 36.5,11 C37.880625,11 39,12.119375 39,13.5 Z" id="Stroke-21"></path>
            </g>
        </g>
    </g>
</svg>